<svg xmlns="http://www.w3.org/2000/svg" viewBox="0 0 1080 680">
	<g fill="#334455" stroke="#334455" stroke-width="4">
		<path d="M902 132C893.71 132 887 125.29 887 117C887 108.7 893.71 102 902 102C910.29 102 917 108.7 917 117C917 125.29 910.29 132 902 132Z" />
		<path d="M39.95 665.91C39.77 665.91 39.59 665.91 39.4 665.9C39.22 665.9 39.03 665.88 38.85 665.87C38.66 665.85 38.48 665.83 38.3 665.81C38.12 665.78 37.93 665.75 37.75 665.72C37.03 665.55 36.14 664.67 35.52 664.62C35.09 664.23 34.7 663.81 34.34 663.35C33.98 662.9 33.66 662.42 33.39 661.91C33.11 661.4 32.87 660.88 32.68 660.33C32.49 659.79 32.34 659.23 32.24 658.66C30.17 649.56 29.81 639.75 28.68 630.48C27.45 620.44 26.32 610.37 25.61 600.27C25.25 595.02 24.9 589.78 24.56 584.54L22.06 546.97C21.07 531.95 20.1 516.94 19.14 501.92C17.4 474.77 15.86 447.62 14.75 420.42C14.41 411.45 14.05 402.49 13.69 393.51C11.84 366.37 11.42 339.11 10.25 311.9C9.53 295.06 8.83 278.21 8.14 261.38C7.97 257.09 7.8 252.79 7.64 248.49C7.1 234 7.31 219.5 7.48 205C7.78 177.93 7.98 150.64 9.94 123.59C10.02 122.02 10.12 120.45 10.24 118.88C10.36 117.31 10.5 115.75 10.67 114.18C10.83 112.62 11.02 111.06 11.23 109.5C11.43 107.94 11.66 106.38 11.91 104.83C12.14 103.61 12.37 102.4 12.61 101.19C13.1 98.74 13.31 95.53 15.27 93.76C15.64 93.45 16.03 93.18 16.45 92.95C16.87 92.71 17.31 92.51 17.76 92.35C18.21 92.19 18.68 92.08 19.16 92C19.63 91.92 20.11 91.89 20.59 91.9C20.98 91.88 21.38 91.9 21.77 91.96C22.16 92.01 22.55 92.1 22.93 92.21C23.3 92.33 23.67 92.48 24.02 92.66C24.37 92.84 24.71 93.05 25.02 93.29C28.46 95.99 28.42 101.77 29.2 105.89C34.28 132.64 39.72 159.3 45.53 185.9C46.38 189.78 47.24 193.66 48.1 197.54C53.9 223.73 60.14 249.86 67.36 275.71C69.09 281.96 70.94 288.17 72.89 294.35C74.85 300.53 76.92 306.68 79.1 312.78C81.28 318.89 83.57 324.95 85.97 330.98C88.37 337 90.88 342.98 93.5 348.91C98.17 359.47 102.98 369.99 108.59 380.08C109.34 381.48 110.11 382.86 110.9 384.23C111.68 385.6 112.49 386.96 113.32 388.31C114.15 389.66 115 390.99 115.86 392.32C116.73 393.64 117.61 394.95 118.52 396.25C122.4 401.61 127.01 407.39 132.08 411.73C132.85 412.43 133.67 413.07 134.54 413.66C135.41 414.24 136.31 414.76 137.25 415.21C138.19 415.66 139.17 416.04 140.16 416.35C141.16 416.67 142.17 416.91 143.2 417.07C148.52 417.73 153.89 415.68 158.24 412.54C164.24 408.22 169.03 402.06 173.29 396.08C187.37 376.24 196.41 353.4 205.65 331.07C210.86 318.47 216 305.87 220.53 292.95C222.44 287.53 224.18 281.91 225.63 276.33C226.42 273.22 226.66 269.96 227.89 266.96C228.03 266.59 228.19 266.24 228.37 265.89C228.55 265.54 228.75 265.21 228.98 264.88C229.2 264.56 229.44 264.25 229.7 263.96C229.96 263.66 230.23 263.39 230.52 263.13C231.74 262.11 233.79 260.85 235.4 260.82C235.53 260.82 235.65 260.83 235.77 260.84C235.89 260.85 236.01 260.87 236.13 260.88C236.25 260.9 236.37 260.93 236.49 260.96C236.61 260.99 236.72 261.02 236.84 261.06C245.11 263.57 244.56 274.55 244.48 281.38C244.28 297.36 244.77 313.33 245.84 329.26C246.84 344.52 247.83 360.04 251.08 375.01C252.28 380.54 253.71 385.66 257.07 390.32C258.86 392.79 261.06 394.69 264.15 395.05C264.77 395.11 265.4 395.13 266.02 395.12C266.64 395.11 267.26 395.07 267.88 394.99C268.5 394.9 269.11 394.79 269.71 394.64C270.32 394.49 270.91 394.3 271.5 394.08C279.65 391.38 286.29 385.67 293.54 381.33C305.97 373.93 318.42 366.55 331 359.38C342.42 352.87 354.15 344.96 366.75 340.87C368.23 340.38 369.73 339.97 371.26 339.63C372.78 339.3 374.32 339.04 375.87 338.87C377.42 338.69 378.98 338.6 380.54 338.58C382.1 338.57 383.67 338.64 385.22 338.79C391.91 339.52 394.91 342.71 400.29 346.13C400.93 346.54 401.61 346.89 402.32 347.18C403.03 347.47 403.77 347.69 404.52 347.83C405.27 347.98 406.04 348.06 406.81 348.06C407.57 348.06 408.34 347.99 409.09 347.85C411.29 347.42 413.38 346.59 415.55 346.08C421.7 344.61 428.91 345.69 432.99 350.99C433.5 351.71 433.96 352.47 434.37 353.26C434.78 354.04 435.14 354.86 435.45 355.69C435.76 356.52 436.01 357.37 436.21 358.24C436.41 359.1 436.55 359.98 436.64 360.86C436.83 361.99 437 363.12 437.13 364.26C437.27 365.39 437.38 366.53 437.47 367.67C437.55 368.81 437.61 369.96 437.65 371.1C437.68 372.24 437.68 373.39 437.66 374.53C437.47 378.62 437.34 382.71 437.25 386.8C437.2 388.91 437.29 391.02 437.42 393.12C437.42 393.62 437.42 394.12 437.44 394.62C437.47 395.12 437.5 395.61 437.55 396.11C437.6 396.61 437.66 397.1 437.73 397.59C437.81 398.09 437.89 398.58 438 399.07C438.03 399.2 438.07 399.34 438.12 399.48C438.16 399.61 438.22 399.74 438.29 399.87C438.35 400 438.42 400.12 438.5 400.24C438.58 400.36 438.67 400.47 438.77 400.58C438.98 400.75 439.22 400.9 439.48 401.01C439.74 401.13 440.01 401.2 440.28 401.25C440.56 401.29 440.84 401.29 441.12 401.26C441.4 401.23 441.67 401.16 441.93 401.06C442.81 400.74 443.67 400.38 444.52 399.98C445.36 399.58 446.19 399.15 447 398.68C447.81 398.2 448.59 397.7 449.36 397.15C450.12 396.61 450.86 396.03 451.57 395.42C452.32 394.81 453.06 394.17 453.79 393.51C454.51 392.85 455.22 392.18 455.91 391.48C456.6 390.79 457.27 390.08 457.92 389.35C458.57 388.62 459.21 387.87 459.82 387.11C460.51 386.28 461.17 385.44 461.8 384.57C462.44 383.7 463.05 382.82 463.63 381.91C464.21 381.01 464.77 380.09 465.29 379.15C465.82 378.22 466.32 377.26 466.79 376.3C467.51 374.82 468.17 373.31 468.76 371.77C469.35 370.24 469.88 368.68 470.35 367.1C470.81 365.52 471.21 363.92 471.54 362.31C471.87 360.7 472.14 359.07 472.33 357.44C472.45 356.7 472.54 355.95 472.59 355.2C472.65 354.45 472.67 353.7 472.66 352.95C472.65 352.2 472.61 351.45 472.54 350.7C472.46 349.95 472.36 349.21 472.23 348.47C471.95 347.33 467.97 338.47 466.09 339.68C459.71 343.76 448.22 350.91 440.65 346.09C435.63 342.86 435.99 335.77 438.94 331.28C439.7 330.17 440.58 329.14 441.57 328.21C442.55 327.29 443.63 326.47 444.79 325.77C445.94 325.08 447.17 324.51 448.45 324.07C449.73 323.64 451.05 323.34 452.39 323.19C453.56 323.11 454.74 323.08 455.91 323.11C457.08 323.13 458.25 323.2 459.42 323.32C460.59 323.45 461.75 323.62 462.9 323.84C464.05 324.07 465.19 324.34 466.32 324.66C474.99 318.47 483.51 312.05 491.86 305.41C506.14 294.01 518.66 280.56 530.88 266.99C534.54 262.93 538.01 257.35 542.16 253.87C564.96 225.4 584.29 192.44 590.2 156C591.58 147.56 592.42 139.05 592.96 130.53C593.37 123.96 593.58 117.37 593.68 110.8C593.85 97.41 593.71 84.04 592.74 70.68L592.74 70.61C591.94 59.69 588.96 49.2 586.51 38.63C586.2 37.3 585.15 29.03 582.82 30.49C582.71 30.57 582.61 30.67 582.51 30.78C582.42 30.88 582.33 31 582.26 31.12C582.18 31.23 582.12 31.36 582.06 31.49C582 31.62 581.96 31.75 581.92 31.89C575.54 49.4 569.18 66.82 564.06 84.72C562.98 88.52 561.85 92.3 560.77 96.1C557.15 108.68 554.53 121.56 551.52 134.28C542.02 173.96 534.3 213.91 530.87 254.6C530.62 257.49 530.39 260.37 530.18 263.25C529 279.07 527.22 294.87 527.6 310.76C527.94 324.61 529.24 339.7 535.77 352.16C538.9 358.13 543.55 363.13 550.64 363.8C560.29 364.7 570.4 358.02 578.17 352.66C579.93 351.42 581.66 350.15 583.37 348.85C585.08 347.55 586.76 346.22 588.42 344.86C590.08 343.5 591.72 342.1 593.33 340.68C594.94 339.26 596.52 337.81 598.07 336.33C625.23 310.95 646.55 279.87 667.81 249.6C671.56 244.24 674.56 238.74 680.58 235.52C683.17 234.13 686.27 233.22 689.05 234.2C695.09 236.31 695.77 243.82 695.98 249.25C696.35 259.21 696.96 269.2 698.16 279.09C698.77 284.17 700.34 289.14 701.63 294.07C703.21 300.17 705.82 304.98 709.31 310.24C713.26 316.2 718.19 321.46 724.5 324.56C731.49 327.99 736.85 327.77 744.36 325.88C752.84 323.75 760.66 319.93 768.34 315.72C780.9 308.79 796.41 305.81 809.99 301.36C818.27 298.53 826.61 295.92 834.92 293.2C842.01 290.89 849.59 289.06 856.32 285.87C866.37 281.13 875.58 273.75 880.37 263.47C881.6 261.11 882.81 258.75 884 256.38C886.64 251.26 889.24 246.16 891.82 241.07C894.26 236.2 896.69 231.32 899.01 226.38C901.61 220.72 903.92 213.92 909.93 210.97C914.98 208.5 919.61 211.82 922.67 215.81C923.01 216.24 923.33 216.68 923.64 217.12C923.95 217.57 924.24 218.02 924.53 218.49C924.81 218.95 925.08 219.42 925.34 219.9C925.6 220.37 925.85 220.86 926.08 221.35C926.92 223.24 927.42 225.28 928.22 227.19C929.22 229.56 930.11 231.98 931.16 234.33C931.76 235.74 932.39 237.14 933.07 238.52C933.75 239.89 934.47 241.25 935.23 242.58C935.99 243.92 936.78 245.23 937.62 246.51C938.46 247.8 939.33 249.06 940.24 250.29C943.32 254.29 947.49 258.56 952.77 259.17C957.39 259.71 961.45 256.99 964.49 253.77C965.28 252.93 966.17 252.19 966.96 251.37C969.17 249.03 971.33 246.56 973.34 244.01C974.12 243.02 974.89 242.01 975.64 240.99C976.4 239.98 977.14 238.95 977.86 237.91C978.59 236.87 979.29 235.82 979.99 234.76C980.68 233.7 981.36 232.63 982.03 231.55C982.9 230.13 983.75 228.69 984.58 227.24C985.41 225.79 986.21 224.32 987 222.85C987.78 221.37 988.53 219.88 989.26 218.37C990 216.87 990.7 215.36 991.39 213.83C992.41 211.56 993.38 209.26 994.3 206.94C995.23 204.62 996.09 202.28 996.91 199.92C997.73 197.57 998.49 195.19 999.2 192.8C999.91 190.41 1000.56 188 1001.17 185.58C1001.95 182.4 1002.61 179.22 1003.44 176.06C1004.07 173.69 1004.86 171.36 1005.5 169C1006.17 166.54 1006.82 164.08 1007.42 161.6C1008.03 159.13 1008.61 156.64 1009.14 154.15C1009.68 151.66 1010.19 149.16 1010.66 146.65C1011.12 144.15 1011.56 141.64 1011.96 139.12C1013.31 130.67 1014.29 122.18 1014.9 113.65C1015.16 110.66 1015.52 107.61 1015.81 104.58C1016.41 98.61 1016.99 92.64 1017.53 86.67C1017.73 84.35 1017.93 82.03 1018.14 79.69C1018.22 78.78 1018.3 77.85 1018.38 76.92C1018.37 76.56 1018.37 76.2 1018.38 75.84C1018.38 75.48 1018.4 75.13 1018.42 74.77C1018.44 74.41 1018.47 74.05 1018.51 73.69C1018.55 73.33 1018.59 72.98 1018.65 72.62C1018.67 72.53 1018.7 72.44 1018.74 72.36C1018.77 72.27 1018.8 72.18 1018.84 72.1C1018.87 72.01 1018.91 71.93 1018.95 71.84C1018.99 71.76 1019.03 71.68 1019.08 71.59C1020.28 69.36 1022.3 66.41 1025.15 66.33C1028.34 66.25 1030.57 69.6 1032 72.01C1032.05 72.09 1032.1 72.18 1032.15 72.26C1032.2 72.35 1032.25 72.43 1032.29 72.52C1032.33 72.61 1032.37 72.7 1032.41 72.79C1032.45 72.88 1032.48 72.97 1032.51 73.06C1032.53 73.13 1032.55 73.21 1032.56 73.28C1032.58 73.35 1032.59 73.43 1032.6 73.5C1032.61 73.57 1032.62 73.65 1032.63 73.72C1032.64 73.8 1032.64 73.87 1032.64 73.95C1033.18 79.83 1033.71 85.72 1034.24 91.61C1034.98 99.88 1035.8 108.25 1036.36 116.56C1036.44 117.57 1036.49 118.51 1036.52 119.5C1037.6 118.59 1039.08 118.3 1040.31 117.72C1041.53 117.14 1042.55 116.63 1043.68 116.1L1051.83 112.18L1058.84 108.78C1060.03 108.21 1061.29 107.7 1062.44 107.09C1065.25 105.53 1070.08 105.41 1072.01 108.55C1073.51 110.98 1070.85 114.82 1068.97 116.24C1068.91 116.28 1068.85 116.33 1068.79 116.37C1068.73 116.41 1068.67 116.44 1068.6 116.48C1068.54 116.52 1068.48 116.55 1068.41 116.58C1068.35 116.62 1068.28 116.65 1068.22 116.68L1059.94 120.69L1037.31 131.69C1036.83 132.1 1037.41 134.05 1037.48 134.59C1037.67 136.17 1037.7 137.79 1037.8 139.37C1038.05 142.97 1038.29 146.57 1038.51 150.17C1039.12 160.41 1039.73 170.65 1040.1 180.9C1040.27 185.08 1040.46 189.26 1040.52 193.44C1040.56 197.32 1040.22 201.13 1040.31 205.01L1040.33 206.02L1040.38 208.35C1040.45 211.26 1040.55 214.39 1039.13 217.04C1038.96 217.35 1038.78 217.65 1038.57 217.92C1038.36 218.2 1038.13 218.46 1037.88 218.71C1037.64 218.95 1037.37 219.18 1037.09 219.38C1036.8 219.58 1036.51 219.76 1036.2 219.92C1035.86 220.1 1035.52 220.26 1035.16 220.4C1034.8 220.53 1034.44 220.63 1034.06 220.71C1033.69 220.78 1033.31 220.83 1032.93 220.85C1032.55 220.87 1032.17 220.86 1031.79 220.82C1030.3 220.45 1029.46 218.75 1029 217.42C1027.43 213.03 1027.53 208.44 1027.11 203.88C1026.65 198.82 1026.24 193.81 1025.76 188.78L1025.73 188.48C1025.27 183.65 1024.98 178.81 1024.44 173.99C1023.84 168.57 1023.71 163.09 1023.01 157.67C1022.3 159.18 1022.2 161.08 1021.82 162.69C1021.36 164.7 1020.88 166.72 1020.39 168.73C1019.43 172.7 1018.42 176.66 1017.34 180.61C1016.37 184.27 1015.35 188.01 1014.06 191.61C1012.77 195.21 1011.04 198.83 1009.53 202.44C1005.71 211.64 1001.66 220.92 997.09 229.84C995.95 232.09 994.75 234.31 993.5 236.5C991.89 239.28 989.93 241.83 988.12 244.48C986.31 247.14 984.8 250.15 982.79 252.74C982.25 253.44 981.69 254.13 981.12 254.81C980.54 255.48 979.95 256.14 979.34 256.78C978.73 257.43 978.1 258.06 977.46 258.67C976.82 259.28 976.16 259.88 975.49 260.45C974.2 261.57 972.86 262.62 971.46 263.59C970.06 264.56 968.6 265.46 967.11 266.28C965.61 267.09 964.07 267.83 962.5 268.48C960.92 269.13 959.31 269.7 957.68 270.18C953.56 271.37 949.19 272.22 945 270.92C941.1 269.69 937.67 267 934.85 264.14C928.83 258.01 925.28 250.43 921.85 242.69C919.49 237.47 916.43 232.49 914.72 227.01C914.61 226.68 914.49 226.32 914.17 226.18C914.1 226.16 914.02 226.14 913.95 226.14C913.87 226.14 913.8 226.15 913.73 226.17C913.65 226.19 913.58 226.21 913.52 226.25C913.46 226.29 913.4 226.33 913.34 226.39C913.29 226.44 913.25 226.5 913.2 226.56C913.16 226.62 913.11 226.68 913.07 226.75C913.04 226.81 913 226.88 912.97 226.94C912.93 227.01 912.9 227.08 912.88 227.15C910.86 231.62 908.8 236.18 906.68 240.66C905.57 242.93 904.43 245.19 903.24 247.39C902.3 249.13 901.62 250.97 900.85 252.8C900.1 254.59 899.31 256.37 898.48 258.13C897.64 259.88 896.76 261.61 895.84 263.33C894.92 265.04 893.95 266.72 892.94 268.39C891.94 270.05 890.89 271.68 889.8 273.29C888.72 274.9 887.59 276.46 886.39 277.97C885.19 279.49 883.93 280.95 882.61 282.37C881.3 283.78 879.92 285.14 878.5 286.44C877.07 287.74 875.59 288.98 874.07 290.17C873.17 290.84 872.26 291.49 871.32 292.1C870.38 292.72 869.43 293.3 868.45 293.85C867.48 294.4 866.48 294.92 865.47 295.4C864.46 295.89 863.44 296.34 862.4 296.76C828.73 310.02 794.05 318.01 761 332.99C759.82 333.57 758.62 334.12 757.4 334.65C756.19 335.17 754.96 335.67 753.72 336.13C752.49 336.6 751.24 337.03 749.98 337.44C748.72 337.84 747.45 338.21 746.17 338.55C745.1 338.82 744.02 339.05 742.93 339.24C741.84 339.43 740.74 339.57 739.64 339.68C738.54 339.78 737.44 339.84 736.33 339.86C735.22 339.89 734.12 339.86 733.01 339.8C730.37 339.63 727.76 339.21 725.2 338.54C722.64 337.87 720.15 336.96 717.76 335.83C715.37 334.69 713.1 333.32 710.97 331.75C708.84 330.19 706.86 328.42 705.07 326.48C696.82 317.53 690.11 306.47 686.82 294.77C685.21 289 684.77 283.76 684.11 277.84C683.72 274.65 683.48 270.76 683.2 267.55C682.92 264.33 682.95 260.84 682.57 257.52C682.57 257.48 682.56 257.43 682.56 257.39C682.55 257.34 682.54 257.3 682.53 257.25C682.52 257.21 682.5 257.16 682.49 257.12C682.47 257.07 682.46 257.03 682.44 256.99C682.16 256.43 681.62 256.7 681.33 257.08C681.17 257.3 681.02 257.52 680.87 257.74C680.73 257.96 680.58 258.18 680.44 258.41C680.3 258.63 680.17 258.86 680.03 259.09C679.9 259.32 679.77 259.55 679.64 259.79C679.21 260.56 678.76 261.33 678.3 262.09C677.84 262.85 677.36 263.6 676.88 264.35C676.4 265.1 675.9 265.83 675.39 266.57C674.89 267.3 674.37 268.02 673.84 268.73C671.75 271.56 669.53 274.46 667.68 277.46C662.13 285.31 656.49 293.1 650.67 300.74C640.1 314.58 629.7 329.33 616.64 340.92C604.33 351.89 592.48 363.46 577.69 371.14C575.41 372.36 573.05 373.42 570.62 374.3C568.19 375.19 565.7 375.9 563.17 376.43C560.64 376.96 558.08 377.32 555.5 377.49C552.92 377.66 550.33 377.64 547.76 377.45C533.27 376.53 522.62 365.76 516.57 353.32C509.44 338.64 508.61 324.08 507.99 308.16C507.62 298.72 507.19 289.21 508.09 279.8C508.61 274.32 509.14 268.84 509.69 263.36C512.64 233.43 517.97 203.74 523.45 174.04C523.82 172.06 524.19 170.09 524.55 168.11C525.89 160.85 527.23 153.66 529.25 146.56L533.15 132.91L537.94 116.11C542.6 99.71 547.08 83.37 553.13 67.45L565.11 35.96C566.03 33.54 567.52 31.29 568.6 28.93C569.01 28.03 569.43 27.14 569.87 26.26C570.32 25.37 570.78 24.5 571.26 23.64C571.74 22.78 572.23 21.92 572.75 21.08C573.26 20.24 573.8 19.41 574.35 18.59C574.58 18.21 574.83 17.84 575.09 17.47C575.36 17.11 575.64 16.76 575.93 16.42C576.22 16.09 576.53 15.76 576.85 15.45C577.17 15.13 577.51 14.84 577.85 14.55C579.91 13.02 582.22 13.01 584.65 13.33C589.74 14.02 594.42 18.69 596.97 22.98C597.13 23.27 597.29 23.56 597.44 23.85C597.59 24.15 597.74 24.44 597.88 24.74C598.02 25.04 598.15 25.34 598.29 25.64C598.42 25.95 598.54 26.25 598.66 26.56C599.22 27.83 599.75 29.1 600.27 30.38C600.79 31.67 601.29 32.96 601.76 34.25C602.24 35.55 602.7 36.86 603.14 38.17C603.58 39.48 604 40.8 604.4 42.12C605.93 47.6 606.43 53.34 607.14 58.98C607.91 64.94 609.04 70.69 609.33 76.71C610.46 100.11 609.09 123.28 606.93 146.57C606.72 148.93 606.44 151.29 606.24 153.65C604.72 171.01 599.07 188.99 591.98 204.86C584.89 220.72 574.2 234.42 564.78 248.72C561.54 253.65 557.15 258.09 553.42 262.68C548.23 269.06 543.11 275.5 537.83 281.82C532.93 287.71 526.78 292.2 521.16 297.36C517.14 301.02 513.08 304.68 509 308.34C506.89 310.22 504.82 312.16 502.64 313.97C501.75 314.7 498.39 318.05 497.37 317.96L490.58 323.05L483.78 328.13C481.81 329.59 479.85 331.05 477.88 332.51C477.83 332.54 477.78 332.57 477.74 332.61C477.7 332.65 477.66 332.7 477.62 332.75C477.59 332.79 477.56 332.85 477.53 332.9C477.51 332.95 477.49 333.01 477.48 333.07C477.48 333.07 477.47 333.08 477.47 333.09C477.47 333.1 477.47 333.11 477.47 333.12C477.47 333.13 477.46 333.14 477.47 333.15C477.47 333.16 477.47 333.17 477.47 333.18C477.48 333.2 477.49 333.2 477.5 333.21C477.51 333.22 477.52 333.23 477.53 333.24C477.54 333.25 477.55 333.25 477.56 333.26C477.58 333.27 477.59 333.27 477.6 333.28C479.27 333.88 480.01 335.49 480.71 336.99C480.9 337.4 481.08 337.82 481.25 338.23C481.43 338.65 481.59 339.07 481.75 339.49C481.91 339.91 482.07 340.34 482.21 340.77C482.36 341.2 482.49 341.63 482.62 342.06C483.15 343.74 483.61 345.45 484.01 347.2C484.08 347.46 484.14 347.73 484.2 348C484.26 348.26 484.31 348.53 484.36 348.8C484.41 349.07 484.46 349.33 484.5 349.6C484.55 349.87 484.59 350.14 484.62 350.41C486.31 366.08 479.04 381.22 469.9 393.48C462.1 403.92 449.7 414.88 435.69 413.38C416.68 411.35 425.83 382.4 426.06 370.64C426.08 370.03 426.08 369.42 426.06 368.81C426.04 368.2 426 367.59 425.94 366.99C425.88 366.38 425.81 365.78 425.71 365.17C425.62 364.57 425.5 363.97 425.37 363.38C424.87 361.26 423.93 359.06 422.02 358.01C420.12 356.96 418 357.29 416.01 357.85C409.17 359.76 399.5 361.5 393.48 356.51C392.59 355.78 391.84 354.89 390.92 354.22C386.7 351.11 379.32 352.34 374.63 353.69C365.61 356.27 357.34 360.83 349.31 365.53C341.28 370.23 332.66 374.64 324.37 379.23C314.88 384.42 306.33 391.19 296.85 396.41C292.46 398.84 287.68 400.48 283.31 402.79C278.22 405.48 272.6 407.87 266.77 408.31C247.37 409.9 238.28 390.84 235.29 374.68C231.79 355.78 232.03 336.67 230.82 317.55C230.84 317.26 230.85 316.96 230.85 316.67C230.85 316.38 230.84 316.09 230.83 315.8C230.81 315.5 230.78 315.21 230.74 314.92C230.71 314.63 230.66 314.34 230.61 314.06C230.6 314.15 230.5 314.22 230.41 314.18C230.33 314.14 230.27 314.06 230.19 314.02C229.95 313.9 229.69 314.15 229.55 314.38C229.29 314.86 229.03 315.36 228.79 315.86C228.55 316.36 228.32 316.86 228.1 317.38C227.88 317.89 227.67 318.4 227.48 318.92C227.29 319.45 227.11 319.97 226.94 320.5C225.82 323.41 224.68 326.32 223.52 329.24C222.81 330.97 217.56 345.93 216.58 345.85C213.08 353.95 209.44 362.01 205.4 369.87C200.32 379.73 194.89 389.85 188.91 399.18C183.24 408.03 176.44 416.35 168.03 422.73C167.3 423.28 166.57 423.82 165.82 424.33C165.07 424.85 164.31 425.35 163.54 425.83C162.77 426.31 161.99 426.78 161.19 427.22C160.4 427.66 159.59 428.09 158.78 428.49C148.23 433.59 137.12 433.81 126.76 428.24C117.27 423.14 109.58 415.03 102.98 406.67C100.89 404.01 98.88 401.28 96.96 398.5C82.29 377.41 71.06 353.72 62.54 329.54C61.99 327.97 61.43 326.43 60.94 324.82C60.68 324.05 60.42 323.28 60.14 322.5C54.97 306.55 50.98 290.25 46.62 274.07C41.13 253.69 36.15 233.17 32.27 212.41C29.9 199.62 27.64 186.79 24.68 174.12C24.68 187.17 24.97 200.15 25.18 213.18C25.29 219.94 25.41 226.71 25.59 233.47C25.78 240.05 26.5 246.77 26.34 253.34C27.48 275.85 28.43 298.28 29.09 320.84C29.62 339.7 30.16 358.56 30.85 377.41C31.41 392.69 32.07 407.95 32.5 423.22C32.98 439.85 33.3 456.48 33.68 473.12C34.08 489.14 34.46 505.17 34.93 521.19C35.29 533.33 35.65 545.47 36.03 557.6C36.22 563.47 36.41 569.35 36.6 575.23C36.81 581.04 36.34 587.36 37.25 593.1C37.72 605.44 38.18 617.8 38.97 630.14C39.45 637.67 41 645.06 41.96 652.48C42.47 656.34 43.39 661.3 41.87 665.01C41.85 665.11 41.81 665.21 41.77 665.3C41.72 665.39 41.67 665.48 41.61 665.56C41.55 665.64 41.48 665.71 41.4 665.78C41.33 665.84 41.24 665.9 41.16 665.95C41.09 665.97 41.03 665.99 40.97 666C40.91 666.02 40.84 666.03 40.78 666.03C40.72 666.04 40.65 666.04 40.59 666.04C40.52 666.03 40.46 666.03 40.4 666.02L39.95 665.91Z" />
	</g>
</svg>